<svg width="24" height="24" viewBox="0 0 24 24" fill="none" xmlns="http://www.w3.org/2000/svg">
<g clip-path="url(#clip0_102_30)">
<path d="M12 1.5C9.9233 1.5 7.89323 2.11581 6.16652 3.26957C4.4398 4.42332 3.09399 6.0632 2.29927 7.98182C1.50455 9.90045 1.29661 12.0116 1.70176 14.0484C2.1069 16.0852 3.10693 17.9562 4.57538 19.4246C6.04383 20.8931 7.91476 21.8931 9.95156 22.2982C11.9884 22.7034 14.0996 22.4955 16.0182 21.7007C17.9368 20.906 19.5767 19.5602 20.7304 17.8335C21.8842 16.1068 22.5 14.0767 22.5 12C22.5 9.21523 21.3938 6.54451 19.4246 4.57538C17.4555 2.60625 14.7848 1.5 12 1.5ZM20.88 10.605L16.5 13.14V4.215C17.6598 4.88676 18.655 5.80908 19.4127 6.91461C20.1705 8.02014 20.6718 9.28096 20.88 10.605ZM9 14.01V9.99L12 8.25L15 9.9825V14.0025L12 15.75L9 14.01ZM15 3.51V8.25L7.755 4.065C8.85725 3.47201 10.0719 3.11748 11.3201 3.02445C12.5682 2.93142 13.822 3.10196 15 3.525V3.51ZM6.36 5.01L10.5 7.3875L3 11.715C3.04288 10.419 3.36531 9.14747 3.94524 7.98762C4.52517 6.82776 5.34889 5.80693 6.36 4.995V5.01ZM3.12 13.3875L7.5 10.8525V19.785C6.3393 19.1125 5.34361 18.189 4.58579 17.0821C3.82796 15.9752 3.32715 14.7129 3.12 13.3875ZM9 20.475V15.75L16.2525 19.935C14.9454 20.6374 13.4839 21.0034 12 21C10.9775 20.996 9.96311 20.8185 9 20.475ZM17.64 18.975L13.5 16.605L21 12.2775C20.9582 13.5748 20.6363 14.8478 20.0563 16.009C19.4763 17.1702 18.6521 18.1923 17.64 19.005V18.975Z" fill="#777F89"/>
</g>
<defs>
<clipPath id="clip0_102_30">
<rect width="24" height="24" fill="white"/>
</clipPath>
</defs>
</svg>
