<svg width="24" height="25" viewBox="0 0 24 25" fill="none" xmlns="http://www.w3.org/2000/svg">
<g clip-path="url(#clip0_102_21)">
<path d="M4.95072 2.7618C10.1671 2.7618 17.0888 6.30725 20.7931 9.67319C21.1866 10.0322 21.3351 10.588 21.1763 11.0955C20.7137 12.5972 19.9852 14.0575 19.0117 15.4143C19.9956 16.8021 20.7206 18.3142 21.1866 19.8918C21.3903 20.5892 20.8621 21.2348 20.1958 21.2348C20.0957 21.2348 19.9956 21.2209 19.892 21.1899C18.3178 20.7273 16.8023 20.0023 15.4145 19.015C14.0577 19.9885 12.594 20.7169 11.0957 21.1795C10.9611 21.2209 10.823 21.2417 10.6884 21.2417C10.3086 21.2417 9.93922 21.0863 9.67339 20.7963C6.10723 16.8746 2.34428 9.34868 2.79652 4.05639C2.85521 3.38665 3.38686 2.85501 4.05314 2.79977C4.34658 2.7756 4.64347 2.7618 4.94727 2.7618M4.94727 0C4.56407 0 4.18087 0.0172612 3.81839 0.0483314C1.80573 0.217491 0.217698 1.80552 0.0450857 3.82163C-0.465846 9.82509 3.49733 18.1105 7.62621 22.6536C8.40642 23.5132 9.5215 24.0035 10.6814 24.0035C11.0957 24.0035 11.51 23.9413 11.9035 23.817C13.1187 23.4407 14.2959 22.9264 15.4214 22.2842C16.5848 22.9367 17.8172 23.4545 19.1049 23.8343C19.4605 23.9379 19.823 23.9931 20.1889 23.9931C21.38 23.9931 22.5157 23.4235 23.2304 22.4672C23.9553 21.5006 24.1728 20.275 23.8276 19.1116C23.4478 17.8239 22.93 16.5915 22.2775 15.4281C22.9197 14.3061 23.434 13.1289 23.8103 11.9102C24.2833 10.3843 23.8241 8.70311 22.6469 7.62946C18.5836 3.93211 10.9956 0 4.95072 0L4.94727 0Z" fill="#EDEFF2"/>
<path fill-rule="evenodd" clip-rule="evenodd" d="M14.5205 13.0497L15.3886 13.6672L16.2576 13.0511C17.2589 12.3412 18.3339 11.7809 19.4528 11.3701C19.044 12.4875 18.4839 13.5614 17.772 14.562L17.1544 15.4301L17.7705 16.2991C18.4804 17.3004 19.0407 18.3754 19.4516 19.4943C18.3342 19.0855 17.2602 18.5254 16.2596 17.8135L15.3916 17.1959L14.5225 17.8121C13.5212 18.5219 12.4462 19.0822 11.3274 19.4931C11.7362 18.3757 12.2963 17.3017 13.0082 16.3011L13.6257 15.4331L13.0096 14.5641C12.2997 13.5627 11.7394 12.4877 11.3286 11.3689C12.446 11.7777 13.5199 12.3378 14.5205 13.0497Z" fill="#FFC700"/>
</g>
<defs>
<clipPath id="clip0_102_21">
<rect width="24" height="24.0035" fill="white"/>
</clipPath>
</defs>
</svg>
