<svg width="16" height="16" viewBox="0 0 16 16" fill="none" xmlns="http://www.w3.org/2000/svg">
<g clip-path="url(#clip0_218_60)">
<path fill-rule="evenodd" clip-rule="evenodd" d="M8.00005 0.999996C6.33819 1.00022 4.73062 1.59169 3.4649 2.66859C2.19918 3.7455 1.35788 5.23759 1.0915 6.87796C0.825123 8.51834 1.15104 10.2 2.01095 11.6221C2.87085 13.0441 4.20866 14.1139 5.78505 14.64C6.13505 14.705 6.28505 14.49 6.28505 14.305C6.28505 14.12 6.28505 13.7 6.28505 13.115C4.34005 13.535 3.93005 12.175 3.93005 12.175C3.79328 11.7464 3.50541 11.3821 3.12005 11.15C2.48505 10.72 3.17005 10.725 3.17005 10.725C3.39185 10.7563 3.60356 10.8379 3.78901 10.9636C3.97445 11.0892 4.12873 11.2556 4.24005 11.45C4.43372 11.7974 4.75742 12.0536 5.13997 12.1624C5.52251 12.2711 5.9326 12.2235 6.28005 12.03C6.30828 11.6752 6.46468 11.3429 6.72005 11.095C5.17005 10.915 3.53505 10.315 3.53505 7.635C3.52371 6.93894 3.78166 6.26541 4.25505 5.755C4.04078 5.15209 4.06583 4.48998 4.32505 3.905C4.32505 3.905 4.91005 3.715 6.25005 4.62C7.39579 4.30747 8.60431 4.30747 9.75005 4.62C11.085 3.715 11.67 3.905 11.67 3.905C11.9293 4.48998 11.9543 5.15209 11.74 5.755C12.2134 6.26541 12.4714 6.93894 12.46 7.635C12.46 10.325 10.825 10.915 9.26505 11.09C9.43216 11.2594 9.56102 11.4626 9.64296 11.686C9.7249 11.9094 9.758 12.1477 9.74005 12.385C9.74005 13.32 9.74005 14.075 9.74005 14.305C9.74005 14.535 9.86505 14.71 10.24 14.64C11.8185 14.1133 13.1577 13.0414 14.0175 11.6167C14.8773 10.192 15.2014 8.50762 14.9317 6.86559C14.662 5.22355 13.8162 3.73129 12.546 2.65638C11.2757 1.58148 9.66407 0.994247 8.00005 0.999996Z" fill="#EDEFF2"/>
</g>
<defs>
<clipPath id="clip0_218_60">
<rect width="16" height="16" fill="white"/>
</clipPath>
</defs>
</svg>
