<svg width="24" height="25" viewBox="0 0 24 25" fill="none" xmlns="http://www.w3.org/2000/svg">
<g clip-path="url(#clip0_15_150)">
<path d="M4.95072 3.26009C10.1671 3.26009 17.0888 6.80554 20.7931 10.1715C21.1866 10.5305 21.3351 11.0863 21.1763 11.5938C20.7137 13.0955 19.9852 14.5558 19.0117 15.9126C19.9956 17.3004 20.7206 18.8124 21.1866 20.3901C21.3903 21.0875 20.8621 21.733 20.1958 21.733C20.0957 21.733 19.9956 21.7192 19.892 21.6882C18.3178 21.2256 16.8023 20.5006 15.4145 19.5133C14.0577 20.4868 12.594 21.2152 11.0957 21.6778C10.9611 21.7192 10.823 21.7399 10.6884 21.7399C10.3086 21.7399 9.93922 21.5846 9.67339 21.2946C6.10723 17.3729 2.34428 9.84697 2.79652 4.55468C2.85521 3.88494 3.38686 3.3533 4.05314 3.29806C4.34658 3.2739 4.64347 3.26009 4.94727 3.26009M4.94727 0.498291C4.56407 0.498291 4.18087 0.515552 3.81839 0.546622C1.80573 0.715782 0.217698 2.30381 0.0450857 4.31993C-0.465846 10.3234 3.49733 18.6088 7.62621 23.1519C8.40642 24.0115 9.5215 24.5017 10.6814 24.5017C11.0957 24.5017 11.51 24.4396 11.9035 24.3153C13.1187 23.939 14.2959 23.4246 15.4214 22.7825C16.5848 23.435 17.8172 23.9528 19.1049 24.3326C19.4605 24.4362 19.823 24.4914 20.1889 24.4914C21.38 24.4914 22.5157 23.9218 23.2304 22.9655C23.9553 21.9989 24.1728 20.7733 23.8276 19.6099C23.4478 18.3222 22.93 17.0898 22.2775 15.9264C22.9197 14.8044 23.434 13.6272 23.8103 12.4085C24.2833 10.8826 23.8241 9.2014 22.6469 8.12775C18.5836 4.4304 10.9956 0.498291 4.95072 0.498291L4.94727 0.498291Z" fill="#191B1E"/>
<path d="M9.65246 21.3084C10.0115 21.702 10.5673 21.8504 11.0748 21.6916C13.3257 20.9943 15.5006 19.7204 17.3441 17.8769C19.1876 16.0334 20.4649 13.8585 21.1588 11.6076C21.3141 11.1001 21.1692 10.5443 20.7756 10.1853C16.8573 6.62258 9.32795 2.86309 4.03566 3.31533C3.36593 3.37402 2.83428 3.90567 2.77905 4.57195C2.3268 9.86424 6.08975 17.3901 9.65246 21.3119V21.3084Z" fill="url(#paint0_linear_15_150)"/>
<path d="M15.3901 12.3257C14.0023 11.3384 12.4868 10.6134 10.9091 10.1508C10.1116 9.91603 9.37629 10.6479 9.61105 11.4488C10.0771 13.0265 10.8021 14.542 11.786 15.9298C10.7986 17.3176 10.0736 18.8332 9.61105 20.4109C9.37629 21.2083 10.1082 21.9436 10.9091 21.7089C12.4868 21.2428 14.0023 20.5179 15.3901 19.534C16.7779 20.5213 18.2934 21.2463 19.8711 21.7089C20.6686 21.9436 21.4039 21.2118 21.1692 20.4109C20.7031 18.8332 19.9781 17.3176 18.9942 15.9298C19.9816 14.542 20.7066 13.0265 21.1692 11.4488C21.4039 10.6514 20.672 9.91603 19.8711 10.1508C18.2934 10.6168 16.7779 11.3418 15.3901 12.3257Z" fill="white"/>
</g>
<defs>
<linearGradient id="paint0_linear_15_150" x1="12.5" y1="12.5" x2="0.496477" y2="8.37221" gradientUnits="userSpaceOnUse">
<stop stop-color="#83CDF6"/>
<stop offset="0.515625" stop-color="#81A6F9"/>
<stop offset="1" stop-color="#AA9CFF"/>
</linearGradient>
<clipPath id="clip0_15_150">
<rect width="24" height="24.0035" fill="white" transform="translate(0 0.498291)"/>
</clipPath>
</defs>
</svg>
