<svg width="24" height="24" viewBox="0 0 24 24" fill="none" xmlns="http://www.w3.org/2000/svg">
<g clip-path="url(#clip0_11_80)">
<path d="M12 6L10.9275 7.04475L15.1125 11.25H6V12.75H15.1125L10.9275 16.9297L12 18L18 12L12 6Z" fill="#777F89"/>
<path d="M12 22.5C9.9233 22.5 7.89323 21.8842 6.16652 20.7304C4.4398 19.5767 3.09399 17.9368 2.29927 16.0182C1.50455 14.0996 1.29661 11.9884 1.70176 9.95156C2.1069 7.91476 3.10693 6.04383 4.57538 4.57538C6.04383 3.10693 7.91476 2.1069 9.95156 1.70176C11.9884 1.29661 14.0996 1.50455 16.0182 2.29927C17.9368 3.09399 19.5767 4.4398 20.7304 6.16652C21.8842 7.89323 22.5 9.9233 22.5 12C22.4969 14.7838 21.3896 17.4527 19.4212 19.4212C17.4527 21.3896 14.7838 22.4969 12 22.5ZM12 3C10.22 3 8.47992 3.52785 6.99987 4.51678C5.51983 5.50571 4.36628 6.91132 3.68509 8.55585C3.0039 10.2004 2.82567 12.01 3.17294 13.7558C3.5202 15.5016 4.37737 17.1053 5.63604 18.364C6.89472 19.6226 8.49836 20.4798 10.2442 20.8271C11.99 21.1743 13.7996 20.9961 15.4442 20.3149C17.0887 19.6337 18.4943 18.4802 19.4832 17.0001C20.4722 15.5201 21 13.78 21 12C20.9973 9.61389 20.0482 7.32629 18.361 5.63905C16.6737 3.95181 14.3861 3.00272 12 3Z" fill="#777F89"/>
</g>
<defs>
<clipPath id="clip0_11_80">
<rect width="24" height="24" fill="white"/>
</clipPath>
</defs>
</svg>
