<svg width="24" height="24" viewBox="0 0 24 24" fill="none" xmlns="http://www.w3.org/2000/svg">
<g clip-path="url(#clip0_102_33)">
<path d="M11.4641 11.471L5.46606 17.469L6.52672 18.5297L12.5248 12.5316L11.4641 11.471Z" fill="#777F89"/>
<path d="M12.75 22.5C12.655 22.5003 12.5608 22.4825 12.4725 22.4475C12.3496 22.3986 12.2419 22.318 12.1602 22.2139C12.0786 22.1098 12.0259 21.986 12.0075 21.855L11.2575 16.605L12.7575 16.395L13.32 20.3475L15.75 18.39V12.75C15.7494 12.6513 15.7683 12.5535 15.8057 12.4621C15.843 12.3707 15.898 12.2876 15.9675 12.2175L19.02 9.16505C19.649 8.54034 20.1478 7.7971 20.4877 6.97833C20.8275 6.15957 21.0017 5.28154 21 4.39505V3.00005H19.605C18.7185 2.99836 17.8405 3.17249 17.0217 3.51235C16.2029 3.85222 15.4597 4.35107 14.835 4.98005L11.7825 8.03255C11.7124 8.10206 11.6293 8.15705 11.5379 8.19438C11.4465 8.2317 11.3487 8.25062 11.25 8.25005H5.60999L3.65249 10.695L7.60499 11.2575L7.39499 12.7575L2.14499 12.0075C2.01399 11.9892 1.89019 11.9365 1.78613 11.8548C1.68208 11.7732 1.60147 11.6654 1.55249 11.5425C1.5029 11.4188 1.48718 11.2841 1.50696 11.1523C1.52673 11.0205 1.58128 10.8963 1.66499 10.7925L4.66499 7.04255C4.73408 6.95278 4.8226 6.87983 4.92392 6.82917C5.02524 6.77851 5.13672 6.75146 5.24999 6.75005H10.9425L13.77 3.91505C14.5344 3.14638 15.4437 2.5371 16.4454 2.12254C17.447 1.70798 18.521 1.49639 19.605 1.50005H21C21.3978 1.50005 21.7793 1.65808 22.0606 1.93939C22.342 2.22069 22.5 2.60222 22.5 3.00005V4.39505C22.5036 5.47907 22.2921 6.55304 21.8775 7.55467C21.4629 8.5563 20.8537 9.46567 20.085 10.23L17.25 13.0575V18.75C17.2495 18.8627 17.2236 18.9738 17.1742 19.0751C17.1249 19.1763 17.0534 19.2652 16.965 19.335L13.215 22.335C13.083 22.4409 12.9192 22.4991 12.75 22.5Z" fill="#777F89"/>
</g>
<defs>
<clipPath id="clip0_102_33">
<rect width="24" height="24" fill="white"/>
</clipPath>
</defs>
</svg>
