<svg width="24" height="24" viewBox="0 0 24 24" fill="none" xmlns="http://www.w3.org/2000/svg">
<g clip-path="url(#clip0_102_37)">
<path d="M14.25 19.5V18H9.75V19.5H14.25Z" fill="#777F89"/>
<path d="M18.75 22.5H5.25C4.85232 22.4995 4.47105 22.3414 4.18984 22.0602C3.90864 21.7789 3.75046 21.3977 3.75 21V3C3.7504 2.6023 3.90856 2.221 4.18978 1.93978C4.471 1.65856 4.8523 1.5004 5.25 1.5H18.75C19.1477 1.50046 19.529 1.65864 19.8102 1.93984C20.0914 2.22105 20.2495 2.60232 20.25 3V21C20.2495 21.3977 20.0913 21.7789 19.8101 22.0601C19.5289 22.3413 19.1477 22.4995 18.75 22.5ZM5.25 3V21H18.75V3H5.25Z" fill="#777F89"/>
</g>
<defs>
<clipPath id="clip0_102_37">
<rect width="24" height="24" fill="white"/>
</clipPath>
</defs>
</svg>
